<svg width="18" height="17" viewBox="0 0 18 17" fill="none" xmlns="http://www.w3.org/2000/svg">
<g clip-path="url(#clip0_25_1610)">
<path d="M8.83933 0.708527C4.54318 0.708527 1.04785 4.20351 1.04785 8.5C1.04785 12.7965 4.54318 16.2915 8.83933 16.2915C13.1355 16.2915 16.6308 12.7965 16.6308 8.5C16.6308 4.20351 13.1355 0.708527 8.83933 0.708527ZM13.1534 4.32614L9.73501 8.02913C9.80954 8.17039 9.85561 8.32927 9.85561 8.5C9.85561 8.75746 9.75669 8.99019 9.59883 9.16939L10.8292 11.3845C10.9203 11.5478 10.861 11.7541 10.6978 11.8449C10.6456 11.8741 10.589 11.8876 10.5335 11.8876C10.4142 11.8876 10.299 11.8246 10.2371 11.7131L9.00701 9.49934C8.95213 9.50849 8.89692 9.51628 8.83933 9.51628C8.278 9.51628 7.82305 9.06133 7.82305 8.5C7.82305 7.93868 8.278 7.48372 8.83933 7.48372C8.98161 7.48372 9.11711 7.51353 9.24008 7.56638L12.6555 3.86611C12.7825 3.72925 12.9966 3.7201 13.1341 3.84714C13.2717 3.97417 13.2801 4.18827 13.1534 4.32614Z" fill="white"/>
</g>
<defs>
<clipPath id="clip0_25_1610">
<rect width="16.938" height="16.938" fill="white" transform="translate(0.370117 0.0310059)"/>
</clipPath>
</defs>
</svg>
