<svg width="17" height="17" viewBox="0 0 17 17" fill="none" xmlns="http://www.w3.org/2000/svg">
<g clip-path="url(#clip0_25_1622)">
<path d="M8.30764 0.500046C5.24608 0.500046 2.75537 2.99112 2.75537 6.05276C2.75537 8.99985 7.79304 15.8853 8.00754 16.1769L8.20773 16.4493C8.21922 16.465 8.23426 16.4778 8.25162 16.4866C8.26898 16.4954 8.28817 16.5 8.30764 16.5C8.3272 16.5001 8.3465 16.4955 8.36396 16.4867C8.38142 16.4779 8.39657 16.4651 8.40816 16.4493L8.60822 16.1769C8.82285 15.8853 13.8604 8.99985 13.8604 6.05276C13.8604 2.99112 11.3693 0.500046 8.30764 0.500046ZM8.30764 4.06379C9.4046 4.06379 10.2966 4.95583 10.2966 6.05276C10.2966 7.14912 9.40456 8.04173 8.30764 8.04173C7.21132 8.04173 6.31867 7.14912 6.31867 6.05276C6.31867 4.95583 7.21128 4.06379 8.30764 4.06379Z" fill="white"/>
</g>
<defs>
<clipPath id="clip0_25_1622">
<rect width="16" height="16" fill="white" transform="translate(0.308105 0.5)"/>
</clipPath>
</defs>
</svg>
