<svg width="19" height="19" viewBox="0 0 19 19" fill="none" xmlns="http://www.w3.org/2000/svg">
<g clip-path="url(#clip0_25_1594)">
<path d="M9.42543 9.72748e-05H9.42072C4.22547 9.72748e-05 0.000732422 4.22602 0.000732422 9.42244C0.000732422 11.4836 0.665007 13.394 1.79451 14.9451L0.620251 18.4455L4.24196 17.2877C5.73187 18.2747 7.50916 18.8448 9.42543 18.8448C14.6207 18.8448 18.8454 14.6177 18.8454 9.42244C18.8454 4.22719 14.6207 9.72748e-05 9.42543 9.72748e-05ZM14.9081 13.3056C14.6807 13.9475 13.7785 14.4799 13.0589 14.6353C12.5666 14.7402 11.9235 14.8238 9.75874 13.9263C6.98975 12.7791 5.20658 9.9654 5.0676 9.78284C4.93451 9.60028 3.94869 8.29293 3.94869 6.94083C3.94869 5.58872 4.63535 4.93034 4.91213 4.64767C5.13944 4.41564 5.51516 4.30964 5.87556 4.30964C5.99216 4.30964 6.09699 4.31553 6.19121 4.32024C6.46799 4.33202 6.60697 4.34851 6.78953 4.78547C7.01684 5.33314 7.57041 6.68525 7.63636 6.82423C7.7035 6.96321 7.77063 7.15165 7.67641 7.33421C7.58807 7.52266 7.51034 7.60628 7.37136 7.76646C7.23238 7.92664 7.10047 8.04913 6.96149 8.22109C6.83428 8.37067 6.69059 8.53085 6.85077 8.80763C7.01095 9.07852 7.56452 9.98189 8.37955 10.7074C9.43132 11.6438 10.284 11.9429 10.5891 12.0701C10.8164 12.1643 11.0873 12.142 11.2534 11.9653C11.4642 11.738 11.7245 11.3611 11.9895 10.9901C12.1779 10.7239 12.4158 10.6909 12.6655 10.7851C12.9199 10.8735 14.2662 11.5389 14.5429 11.6767C14.8197 11.8157 15.0023 11.8817 15.0694 11.9983C15.1354 12.1149 15.1354 12.6625 14.9081 13.3056Z" fill="white"/>
</g>
<defs>
<clipPath id="clip0_25_1594">
<rect width="18.8447" height="18.8447" fill="white"/>
</clipPath>
</defs>
</svg>
