<svg width="15" height="15" viewBox="0 0 15 15" fill="none" xmlns="http://www.w3.org/2000/svg">
<path d="M14.5175 10.8C14.4765 10.7675 11.5 8.622 10.683 8.776C10.293 8.845 10.07 9.111 9.6225 9.6435C9.5505 9.7295 9.3775 9.9355 9.243 10.082C8.9602 9.98976 8.68433 9.87748 8.4175 9.746C7.04026 9.0755 5.9275 7.96274 5.257 6.5855C5.12543 6.31871 5.01315 6.04284 4.921 5.76C5.068 5.625 5.274 5.452 5.362 5.378C5.892 4.933 6.1585 4.71 6.2275 4.319C6.369 3.509 4.225 0.512 4.2025 0.485C4.10522 0.346035 3.97827 0.230431 3.83084 0.146552C3.6834 0.0626718 3.51916 0.0126141 3.35 0C2.481 0 0 3.2185 0 3.7605C0 3.792 0.0455 6.994 3.994 11.0105C8.0065 14.9545 11.208 15 11.2395 15C11.782 15 15 12.519 15 11.65C14.9875 11.4814 14.9378 11.3177 14.8543 11.1707C14.7709 11.0238 14.6558 10.8971 14.5175 10.8Z" fill="white"/>
</svg>
